<svg width="922" height="326" viewBox="0 0 922 326" fill="none" xmlns="http://www.w3.org/2000/svg">
<path d="M-45.5 320C56.512 327.268 83.6512 315 138 258C179 215 274.339 154.628 332.5 147C393.5 139 488 160 561 154.5C584.434 152.734 609.827 150.31 640.5 132.5C671.173 114.69 693.5 100.5 693.5 100.5C693.5 100.5 747.415 135.197 779.5 139C847 147 918.5 100.5 918.5 100.5" stroke="#E41F1F" stroke-width="7" stroke-linecap="round"/>
<path d="M693.812 99.1694C665.115 82.2559 639.5 53.8547 639.5 33.2505C639.5 -5.47188 687.528 -2.27461 693.812 29.4633C698.913 -2.62973 748.092 -7.60339 748.092 33.2505C748.092 60.2492 721.682 79.9978 693.812 99.1694Z" stroke="#E41F1F" stroke-width="7"/>
</svg>
