<svg width="1325" height="459" viewBox="0 0 1325 459" fill="none" xmlns="http://www.w3.org/2000/svg">
<path d="M3.5 455C3.5 455 21 353.5 217.5 367.5C319.512 374.768 354.5 362.5 416 285C452.463 239.051 479.807 209.031 537 196C616 178 793 208.5 913.5 158.5C971.188 134.563 1004 135 1063.5 122C1101.23 113.756 1118 100.5 1118 100.5C1118 100.5 1171.91 135.197 1204 139C1271.5 147 1321 112 1321 112" stroke="#E41F1F" stroke-width="7" stroke-linecap="round"/>
<path d="M1118.31 99.1694C1089.62 82.2559 1064 53.8547 1064 33.2505C1064 -5.47188 1112.03 -2.27461 1118.31 29.4633C1123.41 -2.62973 1172.59 -7.60339 1172.59 33.2505C1172.59 60.2492 1146.18 79.9978 1118.31 99.1694Z" stroke="#E41F1F" stroke-width="7"/>
</svg>
