<svg width="183" height="49" viewBox="0 0 183 49" fill="none" xmlns="http://www.w3.org/2000/svg">
<path d="M49.1218 38.2962C56.533 42.6642 60.0541 44.8887 70.9088 38.9273C85.9573 30.6626 82.9527 43.64 98.4206 33.2076M49.1218 38.2962C43.0161 42.4962 35.1923 52.9887 24.6089 41.4723C14.0256 29.956 6.02028 31.3108 1 32.6657M49.1218 38.2962C38.1773 31.8456 28.408 21.0138 28.408 13.1557C28.408 -1.61243 46.7253 -0.393041 49.1218 11.7113C51.0671 -0.528479 69.8234 -2.42536 69.8234 13.1557C69.8234 23.4526 59.7509 30.9844 49.1218 38.2962Z" stroke="#E41F1F" stroke-width="2.97014"/>
<path d="M77.8377 27.9887C77.4021 27.9887 77.0654 27.8799 76.8278 27.662C76.6099 27.4244 76.5011 27.0877 76.5011 26.6522V8.3858C76.5011 7.95022 76.6099 7.62351 76.8278 7.40565C77.0654 7.16804 77.4021 7.04923 77.8377 7.04923H84.8769C86.3223 7.04923 87.5401 7.2671 88.5302 7.70267C89.54 8.11849 90.3122 8.73226 90.8469 9.54415C91.3815 10.356 91.6488 11.346 91.6488 12.5143C91.6488 13.8212 91.2627 14.9102 90.4905 15.7814C89.738 16.6527 88.7084 17.2269 87.4015 17.5041V17.0883C88.8866 17.2665 90.0449 17.8011 90.8766 18.6922C91.728 19.5832 92.1537 20.7613 92.1537 22.2267C92.1537 24.0879 91.5498 25.5136 90.3419 26.5037C89.1341 27.4938 87.4312 27.9887 85.2333 27.9887H77.8377ZM78.8772 26.0284H84.9957C86.5798 26.0284 87.7679 25.7117 88.5599 25.078C89.3519 24.4443 89.7479 23.4841 89.7479 22.197C89.7479 20.8901 89.3519 19.9297 88.5599 19.3159C87.7679 18.6822 86.5798 18.3655 84.9957 18.3655H78.8772V26.0284ZM78.8772 16.4052H84.5205C86.065 16.4052 87.2333 16.0884 88.0252 15.4547C88.8371 14.821 89.243 13.9103 89.243 12.7222C89.243 11.4945 88.8371 10.5737 88.0252 9.95997C87.2333 9.32629 86.065 9.00953 84.5205 9.00953H78.8772V16.4052ZM95.9787 28.1966C95.6223 28.1966 95.3452 28.0976 95.147 27.8996C94.9491 27.6818 94.85 27.3848 94.85 27.0086V8.02938C94.85 7.63331 94.9491 7.33629 95.147 7.13833C95.3452 6.94037 95.6223 6.84132 95.9787 6.84132C96.2956 6.84132 96.543 6.91068 96.7212 7.04923C96.9193 7.16804 97.0975 7.37595 97.2558 7.67296L105.394 22.9989H104.503L112.611 7.67296C112.77 7.37595 112.938 7.16804 113.116 7.04923C113.295 6.91068 113.552 6.84132 113.889 6.84132C114.225 6.84132 114.493 6.94037 114.691 7.13833C114.889 7.33629 114.988 7.63331 114.988 8.02938V27.0086C114.988 27.3848 114.889 27.6818 114.691 27.8996C114.512 28.0976 114.235 28.1966 113.859 28.1966C113.503 28.1966 113.225 28.0976 113.027 27.8996C112.829 27.6818 112.73 27.3848 112.73 27.0086V10.3164H113.443L106.018 24.2463C105.879 24.5037 105.731 24.6919 105.572 24.8107C105.434 24.9097 105.226 24.9592 104.949 24.9592C104.671 24.9592 104.454 24.8998 104.295 24.781C104.137 24.6622 103.998 24.484 103.879 24.2463L96.3648 10.2867H97.0776V27.0086C97.0776 27.3848 96.9787 27.6818 96.7806 27.8996C96.6024 28.0976 96.3351 28.1966 95.9787 28.1966ZM119.754 27.9887C119.318 27.9887 118.982 27.8799 118.744 27.662C118.526 27.4244 118.417 27.0877 118.417 26.6522V8.3858C118.417 7.95022 118.526 7.62351 118.744 7.40565C118.982 7.16804 119.318 7.04923 119.754 7.04923H130.803C131.14 7.04923 131.397 7.13833 131.575 7.31654C131.753 7.49475 131.842 7.74231 131.842 8.05908C131.842 8.39574 131.753 8.65311 131.575 8.83132C131.397 9.00953 131.14 9.09863 130.803 9.09863H120.793V16.3458H130.179C130.516 16.3458 130.773 16.4349 130.951 16.6131C131.129 16.7715 131.219 17.019 131.219 17.3556C131.219 17.6923 131.129 17.9496 130.951 18.1279C130.773 18.3061 130.516 18.3952 130.179 18.3952H120.793V25.9393H130.803C131.14 25.9393 131.397 26.0284 131.575 26.2066C131.753 26.3849 131.842 26.6324 131.842 26.9492C131.842 27.2858 131.753 27.5432 131.575 27.7214C131.397 27.8996 131.14 27.9887 130.803 27.9887H119.754ZM143.01 28.256C140.95 28.256 139.189 27.8205 137.723 26.9492C136.257 26.0779 135.129 24.8404 134.337 23.2365C133.565 21.6326 133.179 19.7218 133.179 17.5041C133.179 15.8409 133.397 14.3558 133.832 13.0489C134.288 11.7223 134.931 10.6034 135.763 9.69266C136.614 8.76196 137.653 8.04913 138.881 7.55416C140.11 7.03929 141.485 6.78192 143.01 6.78192C144.238 6.78192 145.405 6.96013 146.515 7.31654C147.624 7.65321 148.583 8.15813 149.396 8.83132C149.653 9.02928 149.822 9.25708 149.901 9.51445C150 9.75206 150.009 9.98968 149.93 10.2273C149.871 10.4451 149.752 10.6332 149.574 10.7916C149.415 10.9302 149.218 10.9995 148.98 10.9995C148.742 10.9995 148.475 10.9005 148.178 10.7025C147.465 10.1282 146.683 9.70261 145.832 9.42535C144.981 9.14808 144.06 9.00953 143.069 9.00953C141.506 9.00953 140.178 9.34619 139.089 10.0194C138.001 10.6728 137.178 11.6332 136.624 12.9004C136.07 14.1676 135.793 15.7023 135.793 17.5041C135.793 19.306 136.07 20.8504 136.624 22.1375C137.178 23.4048 138.001 24.3751 139.089 25.0483C140.178 25.7017 141.506 26.0284 143.069 26.0284C144.039 26.0284 144.96 25.8899 145.832 25.6126C146.703 25.3156 147.505 24.88 148.237 24.3058C148.534 24.1078 148.802 24.0187 149.039 24.0384C149.277 24.0384 149.474 24.1078 149.633 24.2463C149.792 24.3849 149.901 24.5631 149.96 24.781C150.039 24.9988 150.039 25.2265 149.96 25.4641C149.901 25.7017 149.752 25.9096 149.515 26.0878C148.683 26.8007 147.703 27.3452 146.574 27.7214C145.465 28.0778 144.277 28.256 143.01 28.256ZM159.846 28.1966C159.47 28.1966 159.173 28.0878 158.955 27.8699C158.738 27.6323 158.628 27.3155 158.628 26.9195V9.15803H151.946C151.589 9.15803 151.313 9.05898 151.114 8.86102C150.916 8.66306 150.817 8.40555 150.817 8.08878C150.817 7.75212 150.916 7.49475 151.114 7.31654C151.313 7.13833 151.589 7.04923 151.946 7.04923H167.776C168.133 7.04923 168.411 7.13833 168.608 7.31654C168.807 7.49475 168.905 7.75212 168.905 8.08878C168.905 8.42545 168.807 8.69276 168.608 8.89072C168.411 9.06893 168.133 9.15803 167.776 9.15803H161.094V26.9195C161.094 27.3155 160.985 27.6323 160.767 27.8699C160.569 28.0878 160.262 28.1966 159.846 28.1966ZM170.911 27.9887C170.476 27.9887 170.139 27.8799 169.902 27.662C169.685 27.4244 169.575 27.0877 169.575 26.6522V8.3858C169.575 7.95022 169.685 7.62351 169.902 7.40565C170.139 7.16804 170.476 7.04923 170.911 7.04923H181.96C182.298 7.04923 182.554 7.13833 182.733 7.31654C182.911 7.49475 183 7.74231 183 8.05908C183 8.39574 182.911 8.65311 182.733 8.83132C182.554 9.00953 182.298 9.09863 181.96 9.09863H171.951V16.3458H181.337C181.674 16.3458 181.931 16.4349 182.109 16.6131C182.287 16.7715 182.376 17.019 182.376 17.3556C182.376 17.6923 182.287 17.9496 182.109 18.1279C181.931 18.3061 181.674 18.3952 181.337 18.3952H171.951V25.9393H181.96C182.298 25.9393 182.554 26.0284 182.733 26.2066C182.911 26.3849 183 26.6324 183 26.9492C183 27.2858 182.911 27.5432 182.733 27.7214C182.554 27.8996 182.298 27.9887 181.96 27.9887H170.911Z" fill="black"/>
</svg>
